<svg width="280" height="37" viewBox="0 0 280 37" fill="none" xmlns="http://www.w3.org/2000/svg">
<g filter="url(#filter0_d)">
<path d="M10.0547 28H4.69336V2.30078H19.4238V6.76562H10.0547V13.3926H18.7734V17.8398H10.0547V28ZM37.9512 28L37.2305 25.4863H36.9492C36.375 26.4004 35.5605 27.1094 34.5059 27.6133C33.4512 28.1055 32.25 28.3516 30.9023 28.3516C28.5938 28.3516 26.8535 27.7363 25.6816 26.5059C24.5098 25.2637 23.9238 23.4824 23.9238 21.1621V8.34766H29.2852V19.8262C29.2852 21.2441 29.5371 22.3105 30.041 23.0254C30.5449 23.7285 31.3477 24.0801 32.4492 24.0801C33.9492 24.0801 35.0332 23.582 35.7012 22.5859C36.3691 21.5781 36.7031 19.9141 36.7031 17.5938V8.34766H42.0645V28H37.9512ZM58.6582 7.97852C59.3848 7.97852 59.9883 8.03125 60.4688 8.13672L60.0645 13.1641C59.6309 13.0469 59.1035 12.9883 58.4824 12.9883C56.7715 12.9883 55.4355 13.4277 54.4746 14.3066C53.5254 15.1855 53.0508 16.416 53.0508 17.998V28H47.6895V8.34766H51.75L52.541 11.6523H52.8047C53.4141 10.5508 54.2344 9.66602 55.2656 8.99805C56.3086 8.31836 57.4395 7.97852 58.6582 7.97852ZM82.1777 28H76.8164V16.5215C76.8164 15.1035 76.5645 14.043 76.0605 13.3398C75.5566 12.625 74.7539 12.2676 73.6523 12.2676C72.1523 12.2676 71.0684 12.7715 70.4004 13.7793C69.7324 14.7754 69.3984 16.4336 69.3984 18.7539V28H64.0371V8.34766H68.1328L68.8535 10.8613H69.1523C69.75 9.91211 70.5703 9.19727 71.6133 8.7168C72.668 8.22461 73.8633 7.97852 75.1992 7.97852C77.4844 7.97852 79.2188 8.59961 80.4023 9.8418C81.5859 11.0723 82.1777 12.8535 82.1777 15.1855V28ZM87.4688 3.26758C87.4688 1.52148 88.4414 0.648438 90.3867 0.648438C92.332 0.648438 93.3047 1.52148 93.3047 3.26758C93.3047 4.09961 93.0586 4.75 92.5664 5.21875C92.0859 5.67578 91.3594 5.9043 90.3867 5.9043C88.4414 5.9043 87.4688 5.02539 87.4688 3.26758ZM93.0586 28H87.6973V8.34766H93.0586V28ZM106.98 24.0801C107.918 24.0801 109.043 23.875 110.355 23.4648V27.4551C109.02 28.0527 107.379 28.3516 105.434 28.3516C103.289 28.3516 101.725 27.8125 100.74 26.7344C99.7676 25.6445 99.2812 24.0156 99.2812 21.8477V12.373H96.7148V10.1055L99.668 8.3125L101.215 4.16406H104.643V8.34766H110.145V12.373H104.643V21.8477C104.643 22.6094 104.854 23.1719 105.275 23.5352C105.709 23.8984 106.277 24.0801 106.98 24.0801ZM128.268 28L127.547 25.4863H127.266C126.691 26.4004 125.877 27.1094 124.822 27.6133C123.768 28.1055 122.566 28.3516 121.219 28.3516C118.91 28.3516 117.17 27.7363 115.998 26.5059C114.826 25.2637 114.24 23.4824 114.24 21.1621V8.34766H119.602V19.8262C119.602 21.2441 119.854 22.3105 120.357 23.0254C120.861 23.7285 121.664 24.0801 122.766 24.0801C124.266 24.0801 125.35 23.582 126.018 22.5859C126.686 21.5781 127.02 19.9141 127.02 17.5938V8.34766H132.381V28H128.268ZM148.975 7.97852C149.701 7.97852 150.305 8.03125 150.785 8.13672L150.381 13.1641C149.947 13.0469 149.42 12.9883 148.799 12.9883C147.088 12.9883 145.752 13.4277 144.791 14.3066C143.842 15.1855 143.367 16.416 143.367 17.998V28H138.006V8.34766H142.066L142.857 11.6523H143.121C143.73 10.5508 144.551 9.66602 145.582 8.99805C146.625 8.31836 147.756 7.97852 148.975 7.97852ZM162.492 11.793C161.355 11.793 160.465 12.1562 159.82 12.8828C159.176 13.5977 158.807 14.6172 158.713 15.9414H166.236C166.213 14.6172 165.867 13.5977 165.199 12.8828C164.531 12.1562 163.629 11.793 162.492 11.793ZM163.248 28.3516C160.084 28.3516 157.611 27.4785 155.83 25.7324C154.049 23.9863 153.158 21.5137 153.158 18.3145C153.158 15.0215 153.979 12.4785 155.619 10.6855C157.271 8.88086 159.551 7.97852 162.457 7.97852C165.234 7.97852 167.396 8.76953 168.943 10.3516C170.49 11.9336 171.264 14.1191 171.264 16.9082V19.5098H158.59C158.648 21.0332 159.1 22.2227 159.943 23.0781C160.787 23.9336 161.971 24.3613 163.494 24.3613C164.678 24.3613 165.797 24.2383 166.852 23.9922C167.906 23.7461 169.008 23.3535 170.156 22.8145V26.9629C169.219 27.4316 168.217 27.7773 167.15 28C166.084 28.2344 164.783 28.3516 163.248 28.3516ZM200.566 20.8633C200.566 23.1836 199.729 25.0117 198.053 26.3477C196.389 27.6836 194.068 28.3516 191.092 28.3516C188.35 28.3516 185.924 27.8359 183.814 26.8047V21.7422C185.549 22.5156 187.014 23.0605 188.209 23.377C189.416 23.6934 190.518 23.8516 191.514 23.8516C192.709 23.8516 193.623 23.623 194.256 23.166C194.9 22.709 195.223 22.0293 195.223 21.127C195.223 20.623 195.082 20.1777 194.801 19.791C194.52 19.3926 194.104 19.0117 193.553 18.6484C193.014 18.2852 191.906 17.7051 190.23 16.9082C188.66 16.1699 187.482 15.4609 186.697 14.7812C185.912 14.1016 185.285 13.3105 184.816 12.4082C184.348 11.5059 184.113 10.4512 184.113 9.24414C184.113 6.9707 184.881 5.18359 186.416 3.88281C187.963 2.58203 190.096 1.93164 192.814 1.93164C194.15 1.93164 195.422 2.08984 196.629 2.40625C197.848 2.72266 199.119 3.16797 200.443 3.74219L198.686 7.97852C197.314 7.41602 196.178 7.02344 195.275 6.80078C194.385 6.57812 193.506 6.4668 192.639 6.4668C191.607 6.4668 190.816 6.70703 190.266 7.1875C189.715 7.66797 189.439 8.29492 189.439 9.06836C189.439 9.54883 189.551 9.9707 189.773 10.334C189.996 10.6855 190.348 11.0312 190.828 11.3711C191.32 11.6992 192.475 12.2969 194.291 13.1641C196.693 14.3125 198.34 15.4668 199.23 16.627C200.121 17.7754 200.566 19.1875 200.566 20.8633ZM213.082 24.0801C214.02 24.0801 215.145 23.875 216.457 23.4648V27.4551C215.121 28.0527 213.48 28.3516 211.535 28.3516C209.391 28.3516 207.826 27.8125 206.842 26.7344C205.869 25.6445 205.383 24.0156 205.383 21.8477V12.373H202.816V10.1055L205.77 8.3125L207.316 4.16406H210.744V8.34766H216.246V12.373H210.744V21.8477C210.744 22.6094 210.955 23.1719 211.377 23.5352C211.811 23.8984 212.379 24.0801 213.082 24.0801ZM224.719 18.1387C224.719 20.084 225.035 21.5547 225.668 22.5508C226.312 23.5469 227.355 24.0449 228.797 24.0449C230.227 24.0449 231.252 23.5527 231.873 22.5684C232.506 21.5723 232.822 20.0957 232.822 18.1387C232.822 16.1934 232.506 14.7344 231.873 13.7617C231.24 12.7891 230.203 12.3027 228.762 12.3027C227.332 12.3027 226.301 12.7891 225.668 13.7617C225.035 14.7227 224.719 16.1816 224.719 18.1387ZM238.307 18.1387C238.307 21.3379 237.463 23.8398 235.775 25.6445C234.088 27.4492 231.738 28.3516 228.727 28.3516C226.84 28.3516 225.176 27.9414 223.734 27.1211C222.293 26.2891 221.186 25.0996 220.412 23.5527C219.639 22.0059 219.252 20.2012 219.252 18.1387C219.252 14.9277 220.09 12.4316 221.766 10.6504C223.441 8.86914 225.797 7.97852 228.832 7.97852C230.719 7.97852 232.383 8.38867 233.824 9.20898C235.266 10.0293 236.373 11.207 237.146 12.7422C237.92 14.2773 238.307 16.0762 238.307 18.1387ZM253.705 7.97852C254.432 7.97852 255.035 8.03125 255.516 8.13672L255.111 13.1641C254.678 13.0469 254.15 12.9883 253.529 12.9883C251.818 12.9883 250.482 13.4277 249.521 14.3066C248.572 15.1855 248.098 16.416 248.098 17.998V28H242.736V8.34766H246.797L247.588 11.6523H247.852C248.461 10.5508 249.281 9.66602 250.312 8.99805C251.355 8.31836 252.486 7.97852 253.705 7.97852ZM267.223 11.793C266.086 11.793 265.195 12.1562 264.551 12.8828C263.906 13.5977 263.537 14.6172 263.443 15.9414H270.967C270.943 14.6172 270.598 13.5977 269.93 12.8828C269.262 12.1562 268.359 11.793 267.223 11.793ZM267.979 28.3516C264.814 28.3516 262.342 27.4785 260.561 25.7324C258.779 23.9863 257.889 21.5137 257.889 18.3145C257.889 15.0215 258.709 12.4785 260.35 10.6855C262.002 8.88086 264.281 7.97852 267.188 7.97852C269.965 7.97852 272.127 8.76953 273.674 10.3516C275.221 11.9336 275.994 14.1191 275.994 16.9082V19.5098H263.32C263.379 21.0332 263.83 22.2227 264.674 23.0781C265.518 23.9336 266.701 24.3613 268.225 24.3613C269.408 24.3613 270.527 24.2383 271.582 23.9922C272.637 23.7461 273.738 23.3535 274.887 22.8145V26.9629C273.949 27.4316 272.947 27.7773 271.881 28C270.814 28.2344 269.514 28.3516 267.979 28.3516Z" fill="#AB7A5F"/>
</g>
<defs>
<filter id="filter0_d" x="0.693359" y="0.648438" width="279.301" height="35.7031" filterUnits="userSpaceOnUse" color-interpolation-filters="sRGB">
<feFlood flood-opacity="0" result="BackgroundImageFix"/>
<feColorMatrix in="SourceAlpha" type="matrix" values="0 0 0 0 0 0 0 0 0 0 0 0 0 0 0 0 0 0 127 0"/>
<feOffset dy="4"/>
<feGaussianBlur stdDeviation="2"/>
<feColorMatrix type="matrix" values="0 0 0 0 0 0 0 0 0 0 0 0 0 0 0 0 0 0 0.25 0"/>
<feBlend mode="normal" in2="BackgroundImageFix" result="effect1_dropShadow"/>
<feBlend mode="normal" in="SourceGraphic" in2="effect1_dropShadow" result="shape"/>
</filter>
</defs>
</svg>
